<?xml version="1.0" encoding="UTF-8" standalone="no"?> <svg xmlns="http://www.w3.org/2000/svg" viewBox="0 0 222.15 174.69"><title>ito-hand-love</title><g id="Livello_2" data-name="Livello 2"><g id="Livello_1-2" data-name="Livello 1"><path d="M75.28,174.64c-5.43-.21-11.6.44-17.71-.95-7-1.57-9.4-3.74-9.57-10.67a231.55,231.55,0,0,0-2.93-29.28c-.25-1.68-.33-3.43.88-4.76,3.09-3.43,1-5.42-2-7-6.5-3.38-13.09-6.59-19.62-9.89a14.91,14.91,0,0,1-7.49-8.34A468.48,468.48,0,0,1,.55,50.85a13.1,13.1,0,0,1-.47-4.92C.83,41,3.25,37.2,8.34,35.67c4.81-1.44,8.46.68,11.56,4a39.07,39.07,0,0,1,6.3,9.57,120.62,120.62,0,0,1,6,13.19c2,5.83,4.69,8.33,11.71,9.74,22.4,4.5,38.2,18,45.36,40.3,1.25,3.9,2,7.66,6.9,8.73,2.1.46,2.92,2.51,3.25,4.63,1.9,12.67,3.93,25.32,5.74,38,.73,5.09-2.43,7.59-6.83,9C91,175.2,83.47,174.55,75.28,174.64Zm-16.76-51.9c6.46-.62,12.92-1.14,19.36-1.88,5.07-.59,5.38-1.57,3.54-6.56-6.52-17.7-20.16-27.53-37-33.86-2-.75-4-1.31-5.2,1.07C37.76,84.27,40.34,85,41.84,86,46.38,89.06,51,92,55.6,95c1.95,1.3,3.19,3,2,5.49s-3.29,3.11-5.84,2.65c-10-1.85-22-14.65-23.09-24.56a12.07,12.07,0,0,0-1.22-4.8c-4.49-7.65-7.26-16-10.94-24-1.19-2.59-2.4-7.17-6.32-5.44-3.48,1.53-1.73,5.56-.89,8.54,3.38,12,7.38,23.89,10.1,36.05,2.08,9.31,6.75,15.47,15.47,19.21,7.49,3.21,14.93,6.75,20.09,13.52A3.26,3.26,0,0,0,58.52,122.74Zm-1.41,15.91c10.7-1.32,21.41-2.6,32.11-4,1.82-.24,3.79-.82,3.33-3.39-.43-2.4-2.07-2.49-4.16-2.22-5.26.69-10.56,1.13-15.83,1.7s-10.22,1.14-15.33,1.67c-2.35.25-3,1.65-2.93,3.78C54.4,138.05,55.17,139,57.11,138.65Z"/><path d="M141.91,174.59c-5,0-10,.25-15-.05-8.36-.5-11.88-5.06-10.87-13.28,1.4-11.38,3.44-22.69,3.68-34.19.07-3.54,2.18-5.44,5.17-6.6,2.12-.83,3.7-1.83,4.12-4.42,1.32-8.17,5.56-14.92,11-20.91,9.86-10.78,21.31-19.93,35.87-22.14,8-1.22,10.8-5.19,13.56-11.32,3-6.67,6.53-13.12,10.1-19.51s9.24-8.35,15.12-6c5.71,2.32,8.71,8.28,6.93,14.83-5,18.68-12.33,36.57-19.7,54.41-1.42,3.44-4.68,5.12-7.73,6.81-5.53,3-11.17,5.92-16.7,9-3.47,1.93-5.15,4.58-3.06,8.65,1.65,3.22.39,6.55-.08,9.81-1.26,8.88-2.56,17.77-4,26.63-.72,4.5-3.4,6.8-8.06,7.42C155.54,174.65,148.72,174.43,141.91,174.59Zm17.41-51.53a7.75,7.75,0,0,0,6.42-2.19c5.65-5.65,12.49-9.34,19.9-12.11a17.43,17.43,0,0,0,11.08-11.35c1.53-4.58,3.58-9,5.26-13.49,3.94-10.62,7.81-21.26,10.89-32.16.72-2.55,2.14-5.71-.83-7.2-3.19-1.6-4,2.15-5.19,4C201.24,57,196.73,66.14,192,75.13c-.93,1.78-1.9,3.67-1.58,5.7,1.06,6.71-2.74,10.67-7.76,13.83-4.08,2.57-8.3,4.93-12.54,7.24-2.52,1.38-5.28,2.8-7.3-.78s0-5.71,2.82-7.33c4.19-2.39,8.53-4.52,12.71-6.93,2-1.16,4.32-2.62,2.71-5.5-1.45-2.58-3.75-1.53-5.75-.69-8.31,3.49-16.4,7.47-23.46,13.14-7.31,5.85-11.24,13.85-13.54,22.78-.65,2.53.18,3.83,2.69,4.15Zm3.61,15.54c1.95.51,3.28-.19,3.62-2.22.42-2.51-.87-3.68-3.28-3.92q-15.33-1.56-30.66-3.2c-2-.22-4-1.12-4.42,2.09-.42,3.05,1.7,3.27,3.64,3.51C142.19,136.16,152.56,137.36,162.93,138.6Z"/><path d="M95.79,30.7a43.18,43.18,0,0,1,2.89-15.57c3.49-8.81,9.88-14,19.46-14.95,10.09-1,18.09,2.51,23.31,11.18,2,3.31,3.85,4.27,7.81,4,19-1.26,31.31,17.05,23.39,34.29-3.19,7-8.54,11.8-15,15.57-10.26,6-21.48,8.81-33.16,10.25-7.29.89-12.64-2.25-16.5-8.12C100.4,55.81,97,42.87,95.79,30.7Z"/><path d="M89.21,29.07c-1.8,7.59-3.77,16.33-8.79,24a7.26,7.26,0,0,1-7.28,3.42c-9.19-1-18-3.28-25.56-8.93-6.84-5.12-9-11.51-6.74-18.71,2.23-7,5.75-9.6,13.18-9.69,2.67,0,5.28.2,7.1-2.5C66,9.37,72.42,9.06,78.59,11.19,84.55,13.24,89.2,20.73,89.21,29.07Z"/></g></g></svg>